# xmcd CD database file
#
# Track frame offsets:
#	150
#	13720
#	41635
#	56726
#	79035
#
# Disc length: 1420 seconds
#
# Revision: 0
# Processed by: cddbd v1.5.2PL0 Copyright (c) Steve Scherf et al.
# Submitted via: CDex 1.70beta2
#
DISCID=37058a05
DTITLE=Aaron Keylock - Medicine Man
DYEAR=2014
DGENRE=Blues
TTITLE0=Medicine Man
TTITLE1=Just One Question
TTITLE2=Lay It On The Line (demo)
TTITLE3=Scarlet, Red and Blue (demo)
TTITLE4=Tonight (demo)
EXTD=YEAR: 2014
EXTT0=
EXTT1=
EXTT2=
EXTT3=
EXTT4=
PLAYORDER=
